/* XPM */
static char * xtense_xpm[] = {
"32 32 475 2",
"  	c None",
". 	c #94ACC7",
"+ 	c #95ADC8",
"@ 	c #9DB7D3",
"# 	c #A1BCD8",
"$ 	c #A2BDDA",
"% 	c #A1BBD8",
"& 	c #D3D9FF",
"* 	c #B0BBFF",
"= 	c #A0AAFE",
"- 	c #A3ACFC",
"; 	c #92AAC4",
"> 	c #9ABBF5",
", 	c #C5DEFC",
"' 	c #E3F3FF",
") 	c #FFFFFF",
"! 	c #5BC5FE",
"~ 	c #9DD3FE",
"{ 	c #8B96F9",
"] 	c #4C5EED",
"^ 	c #E8DFFD",
"/ 	c #FEFEFE",
"( 	c #E7FFFF",
"_ 	c #C7F7FF",
": 	c #48CAFF",
"< 	c #C1E6FF",
"[ 	c #F0E2FF",
"} 	c #B3D0FF",
"| 	c #80AFFF",
"1 	c #4C86F9",
"2 	c #3E5DEF",
"3 	c #8B83EE",
"4 	c #F0FEFF",
"5 	c #D0EFFF",
"6 	c #46C6FF",
"7 	c #D8E7FF",
"8 	c #DCD8FF",
"9 	c #98C1FF",
"0 	c #C3DBFF",
"a 	c #D9EBFF",
"b 	c #BED8FF",
"c 	c #7CB1FF",
"d 	c #79A6FE",
"e 	c #498BF6",
"f 	c #FEFCFE",
"g 	c #F7FFFF",
"h 	c #FBFFFF",
"i 	c #EFF9FF",
"j 	c #62CEFF",
"k 	c #76CAFF",
"l 	c #DBDAFF",
"m 	c #B0CEFF",
"n 	c #BAD5FF",
"o 	c #F3FDFF",
"p 	c #E5F2FF",
"q 	c #D2E5FF",
"r 	c #CDE1FF",
"s 	c #82B3FF",
"t 	c #8BBCFE",
"u 	c #1F5FE9",
"v 	c #2F65EA",
"w 	c #C8ECFE",
"x 	c #E3EEFF",
"y 	c #C5DCFF",
"z 	c #E3F2FF",
"A 	c #EEF8FF",
"B 	c #F8FAFF",
"C 	c #FAFFFF",
"D 	c #C7EEFF",
"E 	c #F1E9FF",
"F 	c #7BC9FF",
"G 	c #9CBDFF",
"H 	c #F2F8FF",
"I 	c #B7D6FF",
"J 	c #C5DDFF",
"K 	c #D6EAFF",
"L 	c #B5D2FF",
"M 	c #84B3FF",
"N 	c #9BCDFF",
"O 	c #86B6FE",
"P 	c #A3DBF9",
"Q 	c #BCCDF5",
"R 	c #AECBF5",
"S 	c #CFE2F5",
"T 	c #FBF9F5",
"U 	c #F2F4F6",
"V 	c #EBF4F8",
"W 	c #FEFEFD",
"X 	c #FFFDFF",
"Y 	c #BAD8FF",
"Z 	c #B0CCFF",
"` 	c #409DFF",
" .	c #E2EAFF",
"..	c #EDF5FF",
"+.	c #BBD4FF",
"@.	c #DBEEFF",
"#.	c #D2E7FF",
"$.	c #C3DCFF",
"%.	c #9CC0FF",
"&.	c #9AC3FF",
"*.	c #6AA6FD",
"=.	c #4F83F9",
"-.	c #C7DCF5",
";.	c #B8D9D1",
">.	c #DCDCCD",
",.	c #C6CECC",
"'.	c #A1B5CC",
").	c #A2B9CC",
"!.	c #D1CACA",
"~.	c #4BB5DC",
"{.	c #D0E4FC",
"].	c #B7D5FF",
"^.	c #ACCEFF",
"/.	c #CFE0FF",
"(.	c #C0DBFF",
"_.	c #6DBCFF",
":.	c #F8F8FF",
"<.	c #F9FFFF",
"[.	c #D7EDFF",
"}.	c #CEE4FF",
"|.	c #B3D3FF",
"1.	c #8DB6FF",
"2.	c #93C2FF",
"3.	c #236CF3",
"4.	c #5D9AFF",
"5.	c #ABBFE9",
"6.	c #7A9D9D",
"7.	c #DDD094",
"8.	c #C8C194",
"9.	c #7C8F94",
"0.	c #ACA693",
"a.	c #7EA08E",
"b.	c #6EA2B8",
"c.	c #C2D0FA",
"d.	c #9EC7FF",
"e.	c #A0C6FF",
"f.	c #95C1FF",
"g.	c #E7F7FF",
"h.	c #CDE3FF",
"i.	c #AFD0FF",
"j.	c #8CB8FF",
"k.	c #8BB6FF",
"l.	c #5D98FD",
"m.	c #2466F6",
"n.	c #86B5FF",
"o.	c #C4CDDC",
"p.	c #7D8768",
"q.	c #B9B05F",
"r.	c #BAA75E",
"s.	c #9C945D",
"t.	c #918A5C",
"u.	c #809357",
"v.	c #A7A39B",
"w.	c #89B9F7",
"x.	c #8ABAFF",
"y.	c #7BB0FF",
"z.	c #6BA7FF",
"A.	c #9FCBFF",
"B.	c #F5FEFF",
"C.	c #EAFCFF",
"D.	c #B1D3FF",
"E.	c #89B9FF",
"F.	c #73A5FF",
"G.	c #5E91FF",
"H.	c #1F68F1",
"I.	c #4378F6",
"J.	c #87B0FF",
"K.	c #4B77CA",
"L.	c #9C8833",
"M.	c #C5AB2F",
"N.	c #BC9D30",
"O.	c #AC902E",
"P.	c #93862D",
"Q.	c #A68E26",
"R.	c #888C7A",
"S.	c #7DAEF3",
"T.	c #79AEFF",
"U.	c #6DABFF",
"V.	c #8DC1FF",
"W.	c #86BBFF",
"X.	c #4CACFF",
"Y.	c #5A8FFF",
"Z.	c #3D82FF",
"`.	c #B8D5FF",
" +	c #D3ECFF",
".+	c #8AB6FF",
"++	c #6FA5FF",
"@+	c #4880FF",
"#+	c #2762F1",
"$+	c #4977F4",
"%+	c #6397FF",
"&+	c #8CA4BE",
"*+	c #C09910",
"=+	c #CEA512",
"-+	c #B08D11",
";+	c #9C7D10",
">+	c #9A7D10",
",+	c #B38F0E",
"'+	c #787E62",
")+	c #6EA5EE",
"!+	c #62A0FF",
"~+	c #7EB8FF",
"{+	c #79B6FF",
"]+	c #BEDBFF",
"^+	c #F4FCFF",
"/+	c #A3CFFF",
"(+	c #76B9FF",
"_+	c #EBF2FF",
":+	c #C4DFFF",
"<+	c #BFDEFF",
"[+	c #91C2FF",
"}+	c #68A1FF",
"|+	c #2F6CFF",
"1+	c #0844FE",
"2+	c #A0BAD7",
"3+	c #437AF8",
"4+	c #6195FF",
"5+	c #A1B4BD",
"6+	c #C0990F",
"7+	c #CFA510",
"8+	c #AF8B0D",
"9+	c #9B7C0C",
"0+	c #9C7C0C",
"a+	c #B5900E",
"b+	c #7B805D",
"c+	c #69A3ED",
"d+	c #5DA3FF",
"e+	c #8BC0FF",
"f+	c #3E92FF",
"g+	c #D4E8FF",
"h+	c #BBF9FF",
"i+	c #E4F6FF",
"j+	c #72A4FF",
"k+	c #9FCDFF",
"l+	c #6FAEFF",
"m+	c #1A57FF",
"n+	c #001BFF",
"o+	c #94AAC5",
"p+	c #0A39DD",
"q+	c #2D66FB",
"r+	c #6399FF",
"s+	c #8BA4BD",
"t+	c #997A0C",
"u+	c #707A5E",
"v+	c #428BED",
"w+	c #64A7FF",
"x+	c #65AAFF",
"y+	c #4F9FFF",
"z+	c #F3F9FF",
"A+	c #9DE1FF",
"B+	c #CDECFF",
"C+	c #3F76FF",
"D+	c #438AFF",
"E+	c #0013FF",
"F+	c #0019FF",
"G+	c #2D62FC",
"H+	c #5089FF",
"I+	c #7B9ABD",
"J+	c #6B765E",
"K+	c #6FB1FF",
"L+	c #4198FF",
"M+	c #B7D9FF",
"N+	c #9BDCFF",
"O+	c #D8F1FF",
"P+	c #CBEDFF",
"Q+	c #8FC2FF",
"R+	c #5BA0FF",
"S+	c #002AFF",
"T+	c #1948F9",
"U+	c #407EFF",
"V+	c #7393BD",
"W+	c #67755E",
"X+	c #62A6ED",
"Y+	c #70B5FF",
"Z+	c #3190FF",
"`+	c #57A4FF",
" @	c #DBF7FF",
".@	c #91D5FF",
"+@	c #BADAFF",
"@@	c #76BDFF",
"#@	c #3276FF",
"$@	c #0017FF",
"%@	c #1143FF",
"&@	c #0576F4",
"*@	c #0027FA",
"=@	c #3971FF",
"-@	c #6589BE",
";@	c #AD8A0D",
">@	c #6C795E",
",@	c #4A98EE",
"'@	c #318EFF",
")@	c #2D8CFF",
"!@	c #0776FF",
"~@	c #6BB0FF",
"{@	c #D5E7FF",
"]@	c #7EB4FF",
"^@	c #FDFFFF",
"/@	c #82CEFF",
"(@	c #9BD2FF",
"_@	c #6EB6FF",
":@	c #003AFF",
"<@	c #001FFF",
"[@	c #074BFF",
"}@	c #0044FF",
"|@	c #0A4DFF",
"1@	c #6993C4",
"2@	c #BE980F",
"3@	c #637362",
"4@	c #0467F9",
"5@	c #006DFF",
"6@	c #097BFF",
"7@	c #0072FF",
"8@	c #0060FF",
"9@	c #1180FF",
"0@	c #0074FF",
"a@	c #0050FF",
"b@	c #ACD0FF",
"c@	c #BEEAFF",
"d@	c #9DDBFF",
"e@	c #90CEFF",
"f@	c #0037FF",
"g@	c #001AFF",
"h@	c #1F7EFC",
"i@	c #415B8D",
"j@	c #273DAF",
"k@	c #5A7773",
"l@	c #C49C0F",
"m@	c #97780C",
"n@	c #AD9542",
"o@	c #C6BC96",
"p@	c #CCC2A3",
"q@	c #678DA1",
"r@	c #B3B6A2",
"s@	c #97ADA4",
"t@	c #3E8FC6",
"u@	c #3193F6",
"v@	c #2D95FF",
"w@	c #005FFF",
"x@	c #A4DBFF",
"y@	c #F1FFFF",
"z@	c #78D5FF",
"A@	c #005BFF",
"B@	c #0044FD",
"C@	c #C79F0F",
"D@	c #D8AC10",
"E@	c #D6AB10",
"F@	c #DAAE11",
"G@	c #D5AA11",
"H@	c #DCAF11",
"I@	c #DFB211",
"J@	c #CBA210",
"K@	c #B18D0E",
"L@	c #A8860D",
"M@	c #91740B",
"N@	c #9E7E0C",
"O@	c #A2810C",
"P@	c #BA940E",
"Q@	c #768460",
"R@	c #1684EE",
"S@	c #0D7FFF",
"T@	c #0066FF",
"U@	c #59BBFF",
"V@	c #C0F3FF",
"W@	c #F2FFFF",
"X@	c #94D1FF",
"Y@	c #0059FF",
"Z@	c #2973EE",
"`@	c #82680A",
" #	c #EEBF19",
".#	c #EEC01C",
"+#	c #EEBE15",
"@#	c #EEBF17",
"##	c #E5B611",
"$#	c #D2A710",
"%#	c #A07F0C",
"&#	c #B6910E",
"*#	c #C29B0F",
"=#	c #988732",
"-#	c #3C88BC",
";#	c #369BFA",
">#	c #379EFF",
",#	c #1188FF",
"'#	c #93CCFF",
")#	c #D8FBFF",
"!#	c #5EC2FF",
"~#	c #1A8AFF",
"{#	c #0058FD",
"]#	c #7B620A",
"^#	c #EBBB12",
"/#	c #E9BA12",
"(#	c #CDA310",
"_#	c #A6840D",
":#	c #B8930E",
"<#	c #9D8633",
"[#	c #E8E2C2",
"}#	c #1790FE",
"|#	c #3BA2FF",
"1#	c #349FFF",
"2#	c #42A5FF",
"3#	c #1389FF",
"4#	c #98DAFF",
"5#	c #48ABFF",
"6#	c #0178FF",
"7#	c #82C0F8",
"8#	c #7F650A",
"9#	c #897E32",
"0#	c #E8DFBF",
"a#	c #5EB6FE",
"b#	c #2D9DFF",
"c#	c #51B3FF",
"d#	c #4EB0FF",
"e#	c #5AB9FF",
"f#	c #339CFF",
"g#	c #1587FF",
"h#	c #46ABFE",
"i#	c #6BB3FA",
"j#	c #E7B812",
"k#	c #A9870D",
"l#	c #9C8533",
"m#	c #439CC1",
"n#	c #9BDEFF",
"o#	c #9AD9FF",
"p#	c #44ADFF",
"q#	c #53B8FF",
"r#	c #62BFFF",
"s#	c #55B5FF",
"t#	c #38A9FF",
"u#	c #56B7FF",
"v#	c #9FCEFE",
"w#	c #866B0A",
"x#	c #E1B311",
"y#	c #A4830D",
"z#	c #6E6A32",
"A#	c #84B6C2",
"B#	c #CCF4FE",
"C#	c #35A7FF",
"D#	c #1F94FF",
"E#	c #7FD1FF",
"F#	c #7CD0FF",
"G#	c #77D2FF",
"H#	c #7CD6FF",
"I#	c #93D3FF",
"J#	c #FDF8FF",
"K#	c #886D0B",
"L#	c #D4A910",
"M#	c #6B6532",
"N#	c #296ABF",
"O#	c #0E81FE",
"P#	c #62C4FF",
"Q#	c #95E1FF",
"R#	c #39A9FF",
"S#	c #25A1FF",
"T#	c #BBF4FF",
"U#	c #E8FEFF",
"V#	c #99B2CE",
"W#	c #8C700B",
"X#	c #BC960E",
"Y#	c #816D18",
"Z#	c #8CA7AD",
"`#	c #68AAFC",
" $	c #64ACFE",
".$	c #6DB7FE",
"+$	c #88C9FD",
"@$	c #CEEEFF",
"#$	c #B4DDFF",
"$$	c #5BB0FE",
"%$	c #97AFCA",
"&$	c #8E710B",
"*$	c #775F09",
"=$	c #A0BAD6",
"-$	c #91A8C2",
";$	c #8FA7C0",
">$	c #8C710D",
",$	c #959D8F",
"'$	c #9EB8D3",
"                                                                ",
"                                            . + @               ",
"                # $ %         & * = -             ;             ",
"                      > , ' ) ) ) ) ! ~ { ]       ;             ",
"                    ^ / ) ( _ ) ) : < [ } | 1 2   $             ",
"                3 / ) ) ) ) 4 5 6 7 8 9 0 a b c d               ",
"              e f g h ) ) i ) j k l m n o p q r s t u           ",
"            v w x y z ) A B C D E F G H ) I J K L M N           ",
"            O P Q R S T U V W X Y Z `  ...+.@.#.$.%.&.*.        ",
"          =.-.;.>.,.'.).!.~.{.].^./.(._.:.) <.[.}.|.1.2.3.      ",
"          4.5.6.7.8.9.0.a.b.c.d.e.f.) ) ) ) <.g.h.i.j.k.l.      ",
"        m.n.o.p.q.r.s.t.u.v.w.x.y.z.A.) <.B.) ) C.D.E.F.G.H.    ",
"        I.J.K.L.M.N.O.P.Q.R.S.T.U.V.) #.W.X.Y.Z.`. +.+++@+#+    ",
"        $+%+&+*+=+-+;+>+,+'+)+!+~+{+]+^+) /+(+_+:+<+[+}+|+1+    ",
"  2+    3+4+5+6+7+8+9+0+a+b+c+d+e+f+g+) ) ) h+) i+j+k+l+m+n+    ",
"  o+  p+q+r+s+6+7+8+t+0+a+u+v+w+x+y+) ) ) ) z+A+) B+C+D+E+F+    ",
"        G+H+I+6+7+8+t+0+a+J+v+K+L+M+) ) ) ) ) N+O+P+Q+R+S+E+    ",
"        T+U+V+6+7+8+t+0+a+W+X+Y+Z+`+) ) ) ) )  @.@+@@@#@$@%@    ",
"      &@*@=@-@6+7+;@t+0+a+>@,@'@)@!@~@) {@]@) ^@/@(@_@:@<@[@    ",
"        }@|@1@2@7+;@t+0+,+3@4@5@6@7@8@9@0@a@b@) c@d@e@f@g@h@    ",
"        i@j@k@l@7+;@m@9+2@n@o@p@q@r@s@t@u@v@w@x@y@) z@A@B@      ",
"  C@D@E@F@G@H@I@J@;@m@t+K@L@M@t+N@O@P@Q@R@S@T@U@V@W@X@Y@Z@      ",
"  `@ #.#+#@###$#6+8+m@t+%#L@,+&#l@*#=#-#;#>#,#'#)#!#~#{#        ",
"    ]#^#@#/#H@(#6+8+m@t+O@_#;@&#:#<#[#}#|#1#2#3#4#5#6#7#        ",
"      8#/# #H@(#6+8+t+t+O@_#8+K@9#0#a#b#c#d#e#f#g#h#i#          ",
"        `@j#^#(#6+8+t+t+%#k#;@l#m#n#o#p#q#r#s#t#u#v#            ",
"          w#x#H@2@8+t+t+y#k#z#A#B#C#D#E#F#G#H#I#J#  %           ",
"            K#L#(#8+t+9+O@M#N#O#P#Q#R#S#T#U#A       V#          ",
"              W#J@X#0+9+Y#Z#`# $.$+$@$#$$$        %$            ",
"                &$*#L@*$  =$                ; -$;$              ",
"                  W#>$,$'$                                      ",
"                                                                "};
